<mxfile host="app.diagrams.net" modified="2023-11-02T07:32:33.149Z" agent="Mozilla/5.0 (X11; Linux x86_64; rv:109.0) Gecko/20100101 Firefox/118.0" etag="mxQJVJa1yWiXWv07VoaK" version="22.0.8" type="github">
  <diagram name="Page-1" id="BCO66HwmWvmW0ojmxKZ8">
    <mxGraphModel dx="1574" dy="1001" grid="1" gridSize="10" guides="1" tooltips="1" connect="1" arrows="1" fold="1" page="1" pageScale="1" pageWidth="850" pageHeight="1100" math="0" shadow="0">
      <root>
        <mxCell id="0" />
        <mxCell id="1" parent="0" />
        <mxCell id="SlwGw2WZb56DubRsE9-k-14" style="edgeStyle=orthogonalEdgeStyle;rounded=0;orthogonalLoop=1;jettySize=auto;html=1;entryX=0.5;entryY=0;entryDx=0;entryDy=0;exitX=0;exitY=0.5;exitDx=0;exitDy=0;" edge="1" parent="1" source="SlwGw2WZb56DubRsE9-k-10" target="SlwGw2WZb56DubRsE9-k-13">
          <mxGeometry relative="1" as="geometry" />
        </mxCell>
        <mxCell id="SlwGw2WZb56DubRsE9-k-37" style="edgeStyle=orthogonalEdgeStyle;rounded=0;orthogonalLoop=1;jettySize=auto;html=1;entryX=0.5;entryY=0;entryDx=0;entryDy=0;exitX=1;exitY=0.5;exitDx=0;exitDy=0;" edge="1" parent="1" source="SlwGw2WZb56DubRsE9-k-10" target="SlwGw2WZb56DubRsE9-k-36">
          <mxGeometry relative="1" as="geometry" />
        </mxCell>
        <mxCell id="SlwGw2WZb56DubRsE9-k-10" value="Draw another card ?" style="rhombus;whiteSpace=wrap;html=1;" vertex="1" parent="1">
          <mxGeometry x="460" y="510" width="143" height="140" as="geometry" />
        </mxCell>
        <mxCell id="SlwGw2WZb56DubRsE9-k-12" value="yes" style="text;html=1;strokeColor=none;fillColor=none;align=center;verticalAlign=middle;whiteSpace=wrap;rounded=0;" vertex="1" parent="1">
          <mxGeometry x="400" y="535" width="60" height="30" as="geometry" />
        </mxCell>
        <mxCell id="SlwGw2WZb56DubRsE9-k-39" style="edgeStyle=orthogonalEdgeStyle;rounded=0;orthogonalLoop=1;jettySize=auto;html=1;exitX=0.5;exitY=1;exitDx=0;exitDy=0;entryX=0;entryY=0.5;entryDx=0;entryDy=0;" edge="1" parent="1" source="SlwGw2WZb56DubRsE9-k-13" target="SlwGw2WZb56DubRsE9-k-36">
          <mxGeometry relative="1" as="geometry">
            <Array as="points">
              <mxPoint x="440" y="780" />
            </Array>
          </mxGeometry>
        </mxCell>
        <mxCell id="SlwGw2WZb56DubRsE9-k-13" value="Add 1 card to my_card" style="rounded=1;whiteSpace=wrap;html=1;" vertex="1" parent="1">
          <mxGeometry x="380" y="670" width="120" height="60" as="geometry" />
        </mxCell>
        <mxCell id="SlwGw2WZb56DubRsE9-k-25" style="edgeStyle=orthogonalEdgeStyle;rounded=0;orthogonalLoop=1;jettySize=auto;html=1;entryX=0.5;entryY=0;entryDx=0;entryDy=0;" edge="1" parent="1" source="SlwGw2WZb56DubRsE9-k-15" target="SlwGw2WZb56DubRsE9-k-23">
          <mxGeometry relative="1" as="geometry" />
        </mxCell>
        <mxCell id="SlwGw2WZb56DubRsE9-k-35" style="edgeStyle=orthogonalEdgeStyle;rounded=0;orthogonalLoop=1;jettySize=auto;html=1;entryX=0.5;entryY=0;entryDx=0;entryDy=0;exitX=1;exitY=0.5;exitDx=0;exitDy=0;" edge="1" parent="1" source="SlwGw2WZb56DubRsE9-k-15" target="SlwGw2WZb56DubRsE9-k-10">
          <mxGeometry relative="1" as="geometry" />
        </mxCell>
        <mxCell id="SlwGw2WZb56DubRsE9-k-15" value="&lt;div&gt;Does my_cards&amp;nbsp;&lt;/div&gt;&lt;div&gt;equal 21 ?&lt;/div&gt;" style="rhombus;whiteSpace=wrap;html=1;" vertex="1" parent="1">
          <mxGeometry x="340" y="380" width="120" height="120" as="geometry" />
        </mxCell>
        <mxCell id="SlwGw2WZb56DubRsE9-k-18" value="" style="edgeStyle=orthogonalEdgeStyle;rounded=0;orthogonalLoop=1;jettySize=auto;html=1;" edge="1" parent="1" source="SlwGw2WZb56DubRsE9-k-16" target="SlwGw2WZb56DubRsE9-k-17">
          <mxGeometry relative="1" as="geometry" />
        </mxCell>
        <mxCell id="SlwGw2WZb56DubRsE9-k-16" value="Add 2 cards to my_cards" style="rounded=1;whiteSpace=wrap;html=1;" vertex="1" parent="1">
          <mxGeometry x="340" y="80" width="120" height="60" as="geometry" />
        </mxCell>
        <mxCell id="SlwGw2WZb56DubRsE9-k-20" value="" style="edgeStyle=orthogonalEdgeStyle;rounded=0;orthogonalLoop=1;jettySize=auto;html=1;" edge="1" parent="1" source="SlwGw2WZb56DubRsE9-k-17" target="SlwGw2WZb56DubRsE9-k-19">
          <mxGeometry relative="1" as="geometry" />
        </mxCell>
        <mxCell id="SlwGw2WZb56DubRsE9-k-17" value="Add 1 card to computer_cards" style="rounded=1;whiteSpace=wrap;html=1;" vertex="1" parent="1">
          <mxGeometry x="340" y="180" width="120" height="60" as="geometry" />
        </mxCell>
        <mxCell id="SlwGw2WZb56DubRsE9-k-21" value="" style="edgeStyle=orthogonalEdgeStyle;rounded=0;orthogonalLoop=1;jettySize=auto;html=1;" edge="1" parent="1" source="SlwGw2WZb56DubRsE9-k-19" target="SlwGw2WZb56DubRsE9-k-15">
          <mxGeometry relative="1" as="geometry" />
        </mxCell>
        <mxCell id="SlwGw2WZb56DubRsE9-k-19" value="Display both hands" style="rounded=0;whiteSpace=wrap;html=1;" vertex="1" parent="1">
          <mxGeometry x="340" y="280" width="120" height="60" as="geometry" />
        </mxCell>
        <mxCell id="SlwGw2WZb56DubRsE9-k-22" value="yes" style="text;html=1;strokeColor=none;fillColor=none;align=center;verticalAlign=middle;whiteSpace=wrap;rounded=0;" vertex="1" parent="1">
          <mxGeometry x="280" y="400" width="60" height="30" as="geometry" />
        </mxCell>
        <mxCell id="SlwGw2WZb56DubRsE9-k-28" value="" style="edgeStyle=orthogonalEdgeStyle;rounded=0;orthogonalLoop=1;jettySize=auto;html=1;" edge="1" parent="1" source="SlwGw2WZb56DubRsE9-k-23" target="SlwGw2WZb56DubRsE9-k-27">
          <mxGeometry relative="1" as="geometry" />
        </mxCell>
        <mxCell id="SlwGw2WZb56DubRsE9-k-23" value="You win !" style="rounded=0;whiteSpace=wrap;html=1;" vertex="1" parent="1">
          <mxGeometry x="130" y="480" width="120" height="60" as="geometry" />
        </mxCell>
        <mxCell id="SlwGw2WZb56DubRsE9-k-29" style="edgeStyle=orthogonalEdgeStyle;rounded=0;orthogonalLoop=1;jettySize=auto;html=1;entryX=0.5;entryY=0;entryDx=0;entryDy=0;exitX=0;exitY=0.5;exitDx=0;exitDy=0;" edge="1" parent="1" source="SlwGw2WZb56DubRsE9-k-27" target="SlwGw2WZb56DubRsE9-k-16">
          <mxGeometry relative="1" as="geometry" />
        </mxCell>
        <mxCell id="SlwGw2WZb56DubRsE9-k-33" style="edgeStyle=orthogonalEdgeStyle;rounded=0;orthogonalLoop=1;jettySize=auto;html=1;entryX=0.5;entryY=0;entryDx=0;entryDy=0;exitX=1;exitY=0.5;exitDx=0;exitDy=0;" edge="1" parent="1" source="SlwGw2WZb56DubRsE9-k-27" target="SlwGw2WZb56DubRsE9-k-32">
          <mxGeometry relative="1" as="geometry" />
        </mxCell>
        <mxCell id="SlwGw2WZb56DubRsE9-k-27" value="Another game ?" style="rhombus;whiteSpace=wrap;html=1;" vertex="1" parent="1">
          <mxGeometry x="135" y="570" width="110" height="150" as="geometry" />
        </mxCell>
        <mxCell id="SlwGw2WZb56DubRsE9-k-30" value="yes" style="text;html=1;strokeColor=none;fillColor=none;align=center;verticalAlign=middle;whiteSpace=wrap;rounded=0;" vertex="1" parent="1">
          <mxGeometry x="60" y="610" width="60" height="30" as="geometry" />
        </mxCell>
        <mxCell id="SlwGw2WZb56DubRsE9-k-31" value="no" style="text;html=1;strokeColor=none;fillColor=none;align=center;verticalAlign=middle;whiteSpace=wrap;rounded=0;" vertex="1" parent="1">
          <mxGeometry x="250" y="600" width="60" height="30" as="geometry" />
        </mxCell>
        <mxCell id="SlwGw2WZb56DubRsE9-k-32" value="Good Bye" style="rounded=0;whiteSpace=wrap;html=1;" vertex="1" parent="1">
          <mxGeometry x="220" y="730" width="120" height="60" as="geometry" />
        </mxCell>
        <mxCell id="SlwGw2WZb56DubRsE9-k-34" value="no" style="text;html=1;strokeColor=none;fillColor=none;align=center;verticalAlign=middle;whiteSpace=wrap;rounded=0;" vertex="1" parent="1">
          <mxGeometry x="460" y="390" width="60" height="30" as="geometry" />
        </mxCell>
        <mxCell id="SlwGw2WZb56DubRsE9-k-41" value="" style="edgeStyle=orthogonalEdgeStyle;rounded=0;orthogonalLoop=1;jettySize=auto;html=1;" edge="1" parent="1" source="SlwGw2WZb56DubRsE9-k-36" target="SlwGw2WZb56DubRsE9-k-40">
          <mxGeometry relative="1" as="geometry" />
        </mxCell>
        <mxCell id="SlwGw2WZb56DubRsE9-k-36" value="Add 1 card to computer_card" style="rounded=1;whiteSpace=wrap;html=1;" vertex="1" parent="1">
          <mxGeometry x="580" y="750" width="120" height="60" as="geometry" />
        </mxCell>
        <mxCell id="SlwGw2WZb56DubRsE9-k-38" value="no" style="text;html=1;strokeColor=none;fillColor=none;align=center;verticalAlign=middle;whiteSpace=wrap;rounded=0;" vertex="1" parent="1">
          <mxGeometry x="603" y="540" width="60" height="30" as="geometry" />
        </mxCell>
        <mxCell id="SlwGw2WZb56DubRsE9-k-43" value="" style="edgeStyle=orthogonalEdgeStyle;rounded=0;orthogonalLoop=1;jettySize=auto;html=1;" edge="1" parent="1" source="SlwGw2WZb56DubRsE9-k-40" target="SlwGw2WZb56DubRsE9-k-42">
          <mxGeometry relative="1" as="geometry" />
        </mxCell>
        <mxCell id="SlwGw2WZb56DubRsE9-k-40" value="Display both hands" style="rounded=0;whiteSpace=wrap;html=1;" vertex="1" parent="1">
          <mxGeometry x="580" y="850" width="120" height="60" as="geometry" />
        </mxCell>
        <mxCell id="SlwGw2WZb56DubRsE9-k-52" style="edgeStyle=orthogonalEdgeStyle;rounded=0;orthogonalLoop=1;jettySize=auto;html=1;entryX=0.5;entryY=0;entryDx=0;entryDy=0;exitX=0;exitY=0.5;exitDx=0;exitDy=0;" edge="1" parent="1" source="SlwGw2WZb56DubRsE9-k-42" target="SlwGw2WZb56DubRsE9-k-51">
          <mxGeometry relative="1" as="geometry" />
        </mxCell>
        <mxCell id="SlwGw2WZb56DubRsE9-k-64" style="edgeStyle=orthogonalEdgeStyle;rounded=0;orthogonalLoop=1;jettySize=auto;html=1;entryX=0.5;entryY=0;entryDx=0;entryDy=0;" edge="1" parent="1" source="SlwGw2WZb56DubRsE9-k-42" target="SlwGw2WZb56DubRsE9-k-63">
          <mxGeometry relative="1" as="geometry" />
        </mxCell>
        <mxCell id="SlwGw2WZb56DubRsE9-k-42" value="&lt;div&gt;Is my_cards&amp;nbsp;&lt;/div&gt;&lt;div&gt;&amp;gt; 21 ?&lt;/div&gt;" style="rhombus;whiteSpace=wrap;html=1;" vertex="1" parent="1">
          <mxGeometry x="591.5" y="940" width="97" height="100" as="geometry" />
        </mxCell>
        <mxCell id="SlwGw2WZb56DubRsE9-k-44" value="yes" style="text;html=1;strokeColor=none;fillColor=none;align=center;verticalAlign=middle;whiteSpace=wrap;rounded=0;" vertex="1" parent="1">
          <mxGeometry x="532" y="950" width="60" height="30" as="geometry" />
        </mxCell>
        <mxCell id="SlwGw2WZb56DubRsE9-k-50" value="No" style="text;html=1;strokeColor=none;fillColor=none;align=center;verticalAlign=middle;whiteSpace=wrap;rounded=0;" vertex="1" parent="1">
          <mxGeometry x="700" y="950" width="60" height="30" as="geometry" />
        </mxCell>
        <mxCell id="SlwGw2WZb56DubRsE9-k-56" style="edgeStyle=orthogonalEdgeStyle;rounded=0;orthogonalLoop=1;jettySize=auto;html=1;entryX=0.5;entryY=0;entryDx=0;entryDy=0;exitX=0;exitY=0.5;exitDx=0;exitDy=0;" edge="1" parent="1" source="SlwGw2WZb56DubRsE9-k-51" target="SlwGw2WZb56DubRsE9-k-54">
          <mxGeometry relative="1" as="geometry" />
        </mxCell>
        <mxCell id="SlwGw2WZb56DubRsE9-k-59" style="edgeStyle=orthogonalEdgeStyle;rounded=0;orthogonalLoop=1;jettySize=auto;html=1;entryX=0.5;entryY=0;entryDx=0;entryDy=0;exitX=1;exitY=0.5;exitDx=0;exitDy=0;" edge="1" parent="1" source="SlwGw2WZb56DubRsE9-k-51" target="SlwGw2WZb56DubRsE9-k-58">
          <mxGeometry relative="1" as="geometry" />
        </mxCell>
        <mxCell id="SlwGw2WZb56DubRsE9-k-51" value="&lt;div&gt;Is computer_cards&lt;/div&gt;&lt;div&gt;&amp;gt; 21 ?&lt;br&gt;&lt;/div&gt;" style="rhombus;whiteSpace=wrap;html=1;" vertex="1" parent="1">
          <mxGeometry x="430" y="1030" width="100" height="100" as="geometry" />
        </mxCell>
        <mxCell id="SlwGw2WZb56DubRsE9-k-53" value="yes" style="text;html=1;strokeColor=none;fillColor=none;align=center;verticalAlign=middle;whiteSpace=wrap;rounded=0;" vertex="1" parent="1">
          <mxGeometry x="370" y="1040" width="60" height="30" as="geometry" />
        </mxCell>
        <mxCell id="SlwGw2WZb56DubRsE9-k-61" style="edgeStyle=orthogonalEdgeStyle;rounded=0;orthogonalLoop=1;jettySize=auto;html=1;exitX=0.5;exitY=1;exitDx=0;exitDy=0;" edge="1" parent="1" source="SlwGw2WZb56DubRsE9-k-54" target="SlwGw2WZb56DubRsE9-k-60">
          <mxGeometry relative="1" as="geometry" />
        </mxCell>
        <mxCell id="SlwGw2WZb56DubRsE9-k-54" value="Draw" style="rounded=0;whiteSpace=wrap;html=1;" vertex="1" parent="1">
          <mxGeometry x="310" y="1120" width="120" height="60" as="geometry" />
        </mxCell>
        <mxCell id="SlwGw2WZb56DubRsE9-k-57" value="no" style="text;html=1;strokeColor=none;fillColor=none;align=center;verticalAlign=middle;whiteSpace=wrap;rounded=0;" vertex="1" parent="1">
          <mxGeometry x="530" y="1040" width="60" height="30" as="geometry" />
        </mxCell>
        <mxCell id="SlwGw2WZb56DubRsE9-k-62" style="edgeStyle=orthogonalEdgeStyle;rounded=0;orthogonalLoop=1;jettySize=auto;html=1;" edge="1" parent="1" source="SlwGw2WZb56DubRsE9-k-58" target="SlwGw2WZb56DubRsE9-k-60">
          <mxGeometry relative="1" as="geometry" />
        </mxCell>
        <mxCell id="SlwGw2WZb56DubRsE9-k-58" value="You lose" style="rounded=0;whiteSpace=wrap;html=1;" vertex="1" parent="1">
          <mxGeometry x="522" y="1120" width="120" height="60" as="geometry" />
        </mxCell>
        <mxCell id="SlwGw2WZb56DubRsE9-k-60" value="&lt;div&gt;Another&lt;/div&gt;&lt;div&gt;game ?&lt;br&gt;&lt;/div&gt;" style="rhombus;whiteSpace=wrap;html=1;" vertex="1" parent="1">
          <mxGeometry x="435" y="1250" width="90" height="100" as="geometry" />
        </mxCell>
        <mxCell id="SlwGw2WZb56DubRsE9-k-67" style="edgeStyle=orthogonalEdgeStyle;rounded=0;orthogonalLoop=1;jettySize=auto;html=1;entryX=0.5;entryY=0;entryDx=0;entryDy=0;exitX=0;exitY=0.5;exitDx=0;exitDy=0;" edge="1" parent="1" source="SlwGw2WZb56DubRsE9-k-63" target="SlwGw2WZb56DubRsE9-k-66">
          <mxGeometry relative="1" as="geometry" />
        </mxCell>
        <mxCell id="SlwGw2WZb56DubRsE9-k-71" style="edgeStyle=orthogonalEdgeStyle;rounded=0;orthogonalLoop=1;jettySize=auto;html=1;entryX=0.5;entryY=0;entryDx=0;entryDy=0;exitX=1;exitY=0.5;exitDx=0;exitDy=0;" edge="1" parent="1" source="SlwGw2WZb56DubRsE9-k-63" target="SlwGw2WZb56DubRsE9-k-70">
          <mxGeometry relative="1" as="geometry" />
        </mxCell>
        <mxCell id="SlwGw2WZb56DubRsE9-k-63" value="&lt;div&gt;is computer_cards&lt;/div&gt;&lt;div&gt;&amp;gt; 21 ?&lt;br&gt;&lt;/div&gt;" style="rhombus;whiteSpace=wrap;html=1;" vertex="1" parent="1">
          <mxGeometry x="780" y="1040" width="100" height="90" as="geometry" />
        </mxCell>
        <mxCell id="SlwGw2WZb56DubRsE9-k-65" value="yes" style="text;html=1;strokeColor=none;fillColor=none;align=center;verticalAlign=middle;whiteSpace=wrap;rounded=0;" vertex="1" parent="1">
          <mxGeometry x="720" y="1040" width="60" height="30" as="geometry" />
        </mxCell>
        <mxCell id="SlwGw2WZb56DubRsE9-k-66" value="&lt;div&gt;You win !&lt;/div&gt;" style="rounded=0;whiteSpace=wrap;html=1;" vertex="1" parent="1">
          <mxGeometry x="680" y="1140" width="120" height="60" as="geometry" />
        </mxCell>
        <mxCell id="SlwGw2WZb56DubRsE9-k-69" value="no" style="text;html=1;strokeColor=none;fillColor=none;align=center;verticalAlign=middle;whiteSpace=wrap;rounded=0;" vertex="1" parent="1">
          <mxGeometry x="890" y="1040" width="60" height="30" as="geometry" />
        </mxCell>
        <mxCell id="SlwGw2WZb56DubRsE9-k-74" style="edgeStyle=orthogonalEdgeStyle;rounded=0;orthogonalLoop=1;jettySize=auto;html=1;entryX=0.5;entryY=0;entryDx=0;entryDy=0;" edge="1" parent="1" source="SlwGw2WZb56DubRsE9-k-70" target="SlwGw2WZb56DubRsE9-k-73">
          <mxGeometry relative="1" as="geometry" />
        </mxCell>
        <mxCell id="SlwGw2WZb56DubRsE9-k-77" style="edgeStyle=orthogonalEdgeStyle;rounded=0;orthogonalLoop=1;jettySize=auto;html=1;entryX=0.5;entryY=0;entryDx=0;entryDy=0;exitX=1;exitY=0.5;exitDx=0;exitDy=0;" edge="1" parent="1" source="SlwGw2WZb56DubRsE9-k-70" target="SlwGw2WZb56DubRsE9-k-76">
          <mxGeometry relative="1" as="geometry" />
        </mxCell>
        <mxCell id="SlwGw2WZb56DubRsE9-k-70" value="&lt;div&gt;is my_cards&lt;/div&gt;&lt;div&gt;= computer_cards ?&lt;br&gt;&lt;/div&gt;" style="rhombus;whiteSpace=wrap;html=1;" vertex="1" parent="1">
          <mxGeometry x="850" y="1190" width="130" height="120" as="geometry" />
        </mxCell>
        <mxCell id="SlwGw2WZb56DubRsE9-k-72" value="yes" style="text;html=1;strokeColor=none;fillColor=none;align=center;verticalAlign=middle;whiteSpace=wrap;rounded=0;" vertex="1" parent="1">
          <mxGeometry x="800" y="1210" width="60" height="30" as="geometry" />
        </mxCell>
        <mxCell id="SlwGw2WZb56DubRsE9-k-86" style="edgeStyle=orthogonalEdgeStyle;rounded=0;orthogonalLoop=1;jettySize=auto;html=1;entryX=0.5;entryY=0;entryDx=0;entryDy=0;" edge="1" parent="1" source="SlwGw2WZb56DubRsE9-k-73" target="SlwGw2WZb56DubRsE9-k-85">
          <mxGeometry relative="1" as="geometry" />
        </mxCell>
        <mxCell id="SlwGw2WZb56DubRsE9-k-73" value="Draw" style="rounded=0;whiteSpace=wrap;html=1;" vertex="1" parent="1">
          <mxGeometry x="720" y="1310" width="120" height="60" as="geometry" />
        </mxCell>
        <mxCell id="SlwGw2WZb56DubRsE9-k-75" value="no" style="text;html=1;strokeColor=none;fillColor=none;align=center;verticalAlign=middle;whiteSpace=wrap;rounded=0;" vertex="1" parent="1">
          <mxGeometry x="980" y="1210" width="60" height="30" as="geometry" />
        </mxCell>
        <mxCell id="SlwGw2WZb56DubRsE9-k-80" style="edgeStyle=orthogonalEdgeStyle;rounded=0;orthogonalLoop=1;jettySize=auto;html=1;entryX=0.5;entryY=0;entryDx=0;entryDy=0;exitX=0;exitY=0.5;exitDx=0;exitDy=0;" edge="1" parent="1" source="SlwGw2WZb56DubRsE9-k-76" target="SlwGw2WZb56DubRsE9-k-79">
          <mxGeometry relative="1" as="geometry" />
        </mxCell>
        <mxCell id="SlwGw2WZb56DubRsE9-k-83" style="edgeStyle=orthogonalEdgeStyle;rounded=0;orthogonalLoop=1;jettySize=auto;html=1;exitX=1;exitY=0.5;exitDx=0;exitDy=0;" edge="1" parent="1" source="SlwGw2WZb56DubRsE9-k-76" target="SlwGw2WZb56DubRsE9-k-82">
          <mxGeometry relative="1" as="geometry" />
        </mxCell>
        <mxCell id="SlwGw2WZb56DubRsE9-k-76" value="&lt;div&gt;Is my_cards &amp;gt;&lt;/div&gt;&lt;div&gt;computer_cards ?&lt;br&gt;&lt;/div&gt;" style="rhombus;whiteSpace=wrap;html=1;" vertex="1" parent="1">
          <mxGeometry x="970" y="1300" width="140" height="120" as="geometry" />
        </mxCell>
        <mxCell id="SlwGw2WZb56DubRsE9-k-78" value="yes" style="text;html=1;strokeColor=none;fillColor=none;align=center;verticalAlign=middle;whiteSpace=wrap;rounded=0;" vertex="1" parent="1">
          <mxGeometry x="910" y="1325" width="60" height="30" as="geometry" />
        </mxCell>
        <mxCell id="SlwGw2WZb56DubRsE9-k-87" style="edgeStyle=orthogonalEdgeStyle;rounded=0;orthogonalLoop=1;jettySize=auto;html=1;entryX=0.5;entryY=0;entryDx=0;entryDy=0;exitX=0.5;exitY=1;exitDx=0;exitDy=0;" edge="1" parent="1" source="SlwGw2WZb56DubRsE9-k-79" target="SlwGw2WZb56DubRsE9-k-84">
          <mxGeometry relative="1" as="geometry" />
        </mxCell>
        <mxCell id="SlwGw2WZb56DubRsE9-k-79" value="You win !" style="rounded=0;whiteSpace=wrap;html=1;" vertex="1" parent="1">
          <mxGeometry x="850" y="1420" width="120" height="60" as="geometry" />
        </mxCell>
        <mxCell id="SlwGw2WZb56DubRsE9-k-81" value="no" style="text;html=1;strokeColor=none;fillColor=none;align=center;verticalAlign=middle;whiteSpace=wrap;rounded=0;" vertex="1" parent="1">
          <mxGeometry x="1100" y="1320" width="60" height="30" as="geometry" />
        </mxCell>
        <mxCell id="SlwGw2WZb56DubRsE9-k-88" style="edgeStyle=orthogonalEdgeStyle;rounded=0;orthogonalLoop=1;jettySize=auto;html=1;entryX=0.5;entryY=0;entryDx=0;entryDy=0;exitX=0.5;exitY=1;exitDx=0;exitDy=0;" edge="1" parent="1" source="SlwGw2WZb56DubRsE9-k-82" target="SlwGw2WZb56DubRsE9-k-84">
          <mxGeometry relative="1" as="geometry">
            <mxPoint x="1160" y="1490" as="sourcePoint" />
          </mxGeometry>
        </mxCell>
        <mxCell id="SlwGw2WZb56DubRsE9-k-82" value="You lose" style="rounded=0;whiteSpace=wrap;html=1;" vertex="1" parent="1">
          <mxGeometry x="1100" y="1420" width="120" height="60" as="geometry" />
        </mxCell>
        <mxCell id="SlwGw2WZb56DubRsE9-k-84" value="Another game ?" style="rhombus;whiteSpace=wrap;html=1;" vertex="1" parent="1">
          <mxGeometry x="980" y="1550" width="100" height="100" as="geometry" />
        </mxCell>
        <mxCell id="SlwGw2WZb56DubRsE9-k-85" value="Another game ?" style="rhombus;whiteSpace=wrap;html=1;" vertex="1" parent="1">
          <mxGeometry x="730" y="1440" width="100" height="100" as="geometry" />
        </mxCell>
      </root>
    </mxGraphModel>
  </diagram>
</mxfile>
